<mxfile host="app.diagrams.net" modified="2024-02-25T19:49:13.445Z" agent="Mozilla/5.0 (Windows NT 10.0; Win64; x64) AppleWebKit/537.36 (KHTML, like Gecko) Chrome/121.0.0.0 Safari/537.36" etag="OosSXEzauxnYoi0TZvOK" version="23.1.6" type="device">
  <diagram name="PÃ¡gina-1" id="Bi7022wmMvkjZYnpL3fh">
    <mxGraphModel dx="2261" dy="780" grid="1" gridSize="10" guides="1" tooltips="1" connect="1" arrows="1" fold="1" page="1" pageScale="1" pageWidth="827" pageHeight="1169" math="0" shadow="0">
      <root>
        <mxCell id="0" />
        <mxCell id="1" parent="0" />
        <mxCell id="-Z61iHKiomQb0ruuadNm-1" value="Telefono" style="shape=table;startSize=30;container=1;collapsible=1;childLayout=tableLayout;fixedRows=1;rowLines=0;fontStyle=1;align=center;resizeLast=1;html=1;" vertex="1" parent="1">
          <mxGeometry x="-360" y="120" width="210" height="100" as="geometry" />
        </mxCell>
        <mxCell id="-Z61iHKiomQb0ruuadNm-2" value="" style="shape=tableRow;horizontal=0;startSize=0;swimlaneHead=0;swimlaneBody=0;fillColor=none;collapsible=0;dropTarget=0;points=[[0,0.5],[1,0.5]];portConstraint=eastwest;top=0;left=0;right=0;bottom=1;" vertex="1" parent="-Z61iHKiomQb0ruuadNm-1">
          <mxGeometry y="30" width="210" height="40" as="geometry" />
        </mxCell>
        <mxCell id="-Z61iHKiomQb0ruuadNm-3" value="PK, FK" style="shape=partialRectangle;connectable=0;fillColor=none;top=0;left=0;bottom=0;right=0;fontStyle=1;overflow=hidden;whiteSpace=wrap;html=1;" vertex="1" parent="-Z61iHKiomQb0ruuadNm-2">
          <mxGeometry width="30" height="40" as="geometry">
            <mxRectangle width="30" height="40" as="alternateBounds" />
          </mxGeometry>
        </mxCell>
        <mxCell id="-Z61iHKiomQb0ruuadNm-4" value="id_socio SMALLINT NOT NULL" style="shape=partialRectangle;connectable=0;fillColor=none;top=0;left=0;bottom=0;right=0;align=left;spacingLeft=6;fontStyle=5;overflow=hidden;whiteSpace=wrap;html=1;" vertex="1" parent="-Z61iHKiomQb0ruuadNm-2">
          <mxGeometry x="30" width="180" height="40" as="geometry">
            <mxRectangle width="180" height="40" as="alternateBounds" />
          </mxGeometry>
        </mxCell>
        <mxCell id="-Z61iHKiomQb0ruuadNm-5" value="" style="shape=tableRow;horizontal=0;startSize=0;swimlaneHead=0;swimlaneBody=0;fillColor=none;collapsible=0;dropTarget=0;points=[[0,0.5],[1,0.5]];portConstraint=eastwest;top=0;left=0;right=0;bottom=0;" vertex="1" parent="-Z61iHKiomQb0ruuadNm-1">
          <mxGeometry y="70" width="210" height="30" as="geometry" />
        </mxCell>
        <mxCell id="-Z61iHKiomQb0ruuadNm-6" value="" style="shape=partialRectangle;connectable=0;fillColor=none;top=0;left=0;bottom=0;right=0;editable=1;overflow=hidden;whiteSpace=wrap;html=1;" vertex="1" parent="-Z61iHKiomQb0ruuadNm-5">
          <mxGeometry width="30" height="30" as="geometry">
            <mxRectangle width="30" height="30" as="alternateBounds" />
          </mxGeometry>
        </mxCell>
        <mxCell id="-Z61iHKiomQb0ruuadNm-7" value="valor VARCHAR(12) NOT NULL" style="shape=partialRectangle;connectable=0;fillColor=none;top=0;left=0;bottom=0;right=0;align=left;spacingLeft=6;overflow=hidden;whiteSpace=wrap;html=1;" vertex="1" parent="-Z61iHKiomQb0ruuadNm-5">
          <mxGeometry x="30" width="180" height="30" as="geometry">
            <mxRectangle width="180" height="30" as="alternateBounds" />
          </mxGeometry>
        </mxCell>
        <mxCell id="-Z61iHKiomQb0ruuadNm-8" value="Socio" style="shape=table;startSize=30;container=1;collapsible=1;childLayout=tableLayout;fixedRows=1;rowLines=0;fontStyle=1;align=center;resizeLast=1;html=1;" vertex="1" parent="1">
          <mxGeometry y="40" width="240" height="260" as="geometry" />
        </mxCell>
        <mxCell id="-Z61iHKiomQb0ruuadNm-9" value="" style="shape=tableRow;horizontal=0;startSize=0;swimlaneHead=0;swimlaneBody=0;fillColor=none;collapsible=0;dropTarget=0;points=[[0,0.5],[1,0.5]];portConstraint=eastwest;top=0;left=0;right=0;bottom=1;" vertex="1" parent="-Z61iHKiomQb0ruuadNm-8">
          <mxGeometry y="30" width="240" height="80" as="geometry" />
        </mxCell>
        <mxCell id="-Z61iHKiomQb0ruuadNm-10" value="PK" style="shape=partialRectangle;connectable=0;fillColor=none;top=0;left=0;bottom=0;right=0;fontStyle=1;overflow=hidden;whiteSpace=wrap;html=1;" vertex="1" parent="-Z61iHKiomQb0ruuadNm-9">
          <mxGeometry width="30" height="80" as="geometry">
            <mxRectangle width="30" height="80" as="alternateBounds" />
          </mxGeometry>
        </mxCell>
        <mxCell id="-Z61iHKiomQb0ruuadNm-11" value="id SMALLSERIAL NOT NULL" style="shape=partialRectangle;connectable=0;fillColor=none;top=0;left=0;bottom=0;right=0;align=left;spacingLeft=6;fontStyle=5;overflow=hidden;whiteSpace=wrap;html=1;" vertex="1" parent="-Z61iHKiomQb0ruuadNm-9">
          <mxGeometry x="30" width="210" height="80" as="geometry">
            <mxRectangle width="210" height="80" as="alternateBounds" />
          </mxGeometry>
        </mxCell>
        <mxCell id="-Z61iHKiomQb0ruuadNm-12" value="" style="shape=tableRow;horizontal=0;startSize=0;swimlaneHead=0;swimlaneBody=0;fillColor=none;collapsible=0;dropTarget=0;points=[[0,0.5],[1,0.5]];portConstraint=eastwest;top=0;left=0;right=0;bottom=0;" vertex="1" parent="-Z61iHKiomQb0ruuadNm-8">
          <mxGeometry y="110" width="240" height="30" as="geometry" />
        </mxCell>
        <mxCell id="-Z61iHKiomQb0ruuadNm-13" value="" style="shape=partialRectangle;connectable=0;fillColor=none;top=0;left=0;bottom=0;right=0;editable=1;overflow=hidden;whiteSpace=wrap;html=1;" vertex="1" parent="-Z61iHKiomQb0ruuadNm-12">
          <mxGeometry width="30" height="30" as="geometry">
            <mxRectangle width="30" height="30" as="alternateBounds" />
          </mxGeometry>
        </mxCell>
        <mxCell id="-Z61iHKiomQb0ruuadNm-14" value="nombre VARCHAR(30) NOT NULL" style="shape=partialRectangle;connectable=0;fillColor=none;top=0;left=0;bottom=0;right=0;align=left;spacingLeft=6;overflow=hidden;whiteSpace=wrap;html=1;" vertex="1" parent="-Z61iHKiomQb0ruuadNm-12">
          <mxGeometry x="30" width="210" height="30" as="geometry">
            <mxRectangle width="210" height="30" as="alternateBounds" />
          </mxGeometry>
        </mxCell>
        <mxCell id="-Z61iHKiomQb0ruuadNm-15" value="" style="shape=tableRow;horizontal=0;startSize=0;swimlaneHead=0;swimlaneBody=0;fillColor=none;collapsible=0;dropTarget=0;points=[[0,0.5],[1,0.5]];portConstraint=eastwest;top=0;left=0;right=0;bottom=0;" vertex="1" parent="-Z61iHKiomQb0ruuadNm-8">
          <mxGeometry y="140" width="240" height="30" as="geometry" />
        </mxCell>
        <mxCell id="-Z61iHKiomQb0ruuadNm-16" value="" style="shape=partialRectangle;connectable=0;fillColor=none;top=0;left=0;bottom=0;right=0;editable=1;overflow=hidden;whiteSpace=wrap;html=1;" vertex="1" parent="-Z61iHKiomQb0ruuadNm-15">
          <mxGeometry width="30" height="30" as="geometry">
            <mxRectangle width="30" height="30" as="alternateBounds" />
          </mxGeometry>
        </mxCell>
        <mxCell id="-Z61iHKiomQb0ruuadNm-17" value="apellido1 VARCHAR(30) NOT NULL" style="shape=partialRectangle;connectable=0;fillColor=none;top=0;left=0;bottom=0;right=0;align=left;spacingLeft=6;overflow=hidden;whiteSpace=wrap;html=1;" vertex="1" parent="-Z61iHKiomQb0ruuadNm-15">
          <mxGeometry x="30" width="210" height="30" as="geometry">
            <mxRectangle width="210" height="30" as="alternateBounds" />
          </mxGeometry>
        </mxCell>
        <mxCell id="-Z61iHKiomQb0ruuadNm-18" value="" style="shape=tableRow;horizontal=0;startSize=0;swimlaneHead=0;swimlaneBody=0;fillColor=none;collapsible=0;dropTarget=0;points=[[0,0.5],[1,0.5]];portConstraint=eastwest;top=0;left=0;right=0;bottom=0;" vertex="1" parent="-Z61iHKiomQb0ruuadNm-8">
          <mxGeometry y="170" width="240" height="30" as="geometry" />
        </mxCell>
        <mxCell id="-Z61iHKiomQb0ruuadNm-19" value="" style="shape=partialRectangle;connectable=0;fillColor=none;top=0;left=0;bottom=0;right=0;editable=1;overflow=hidden;whiteSpace=wrap;html=1;" vertex="1" parent="-Z61iHKiomQb0ruuadNm-18">
          <mxGeometry width="30" height="30" as="geometry">
            <mxRectangle width="30" height="30" as="alternateBounds" />
          </mxGeometry>
        </mxCell>
        <mxCell id="-Z61iHKiomQb0ruuadNm-20" value="apellido2 VARCHAR(30) NOT NULL" style="shape=partialRectangle;connectable=0;fillColor=none;top=0;left=0;bottom=0;right=0;align=left;spacingLeft=6;overflow=hidden;whiteSpace=wrap;html=1;" vertex="1" parent="-Z61iHKiomQb0ruuadNm-18">
          <mxGeometry x="30" width="210" height="30" as="geometry">
            <mxRectangle width="210" height="30" as="alternateBounds" />
          </mxGeometry>
        </mxCell>
        <mxCell id="-Z61iHKiomQb0ruuadNm-21" value="" style="shape=tableRow;horizontal=0;startSize=0;swimlaneHead=0;swimlaneBody=0;fillColor=none;collapsible=0;dropTarget=0;points=[[0,0.5],[1,0.5]];portConstraint=eastwest;top=0;left=0;right=0;bottom=0;" vertex="1" parent="-Z61iHKiomQb0ruuadNm-8">
          <mxGeometry y="200" width="240" height="30" as="geometry" />
        </mxCell>
        <mxCell id="-Z61iHKiomQb0ruuadNm-22" value="" style="shape=partialRectangle;connectable=0;fillColor=none;top=0;left=0;bottom=0;right=0;editable=1;overflow=hidden;whiteSpace=wrap;html=1;" vertex="1" parent="-Z61iHKiomQb0ruuadNm-21">
          <mxGeometry width="30" height="30" as="geometry">
            <mxRectangle width="30" height="30" as="alternateBounds" />
          </mxGeometry>
        </mxCell>
        <mxCell id="-Z61iHKiomQb0ruuadNm-23" value="fecha_nacimiento DATE NOT NULL" style="shape=partialRectangle;connectable=0;fillColor=none;top=0;left=0;bottom=0;right=0;align=left;spacingLeft=6;overflow=hidden;whiteSpace=wrap;html=1;" vertex="1" parent="-Z61iHKiomQb0ruuadNm-21">
          <mxGeometry x="30" width="210" height="30" as="geometry">
            <mxRectangle width="210" height="30" as="alternateBounds" />
          </mxGeometry>
        </mxCell>
        <mxCell id="-Z61iHKiomQb0ruuadNm-24" value="" style="shape=tableRow;horizontal=0;startSize=0;swimlaneHead=0;swimlaneBody=0;fillColor=none;collapsible=0;dropTarget=0;points=[[0,0.5],[1,0.5]];portConstraint=eastwest;top=0;left=0;right=0;bottom=0;" vertex="1" parent="-Z61iHKiomQb0ruuadNm-8">
          <mxGeometry y="230" width="240" height="30" as="geometry" />
        </mxCell>
        <mxCell id="-Z61iHKiomQb0ruuadNm-25" value="" style="shape=partialRectangle;connectable=0;fillColor=none;top=0;left=0;bottom=0;right=0;editable=1;overflow=hidden;whiteSpace=wrap;html=1;" vertex="1" parent="-Z61iHKiomQb0ruuadNm-24">
          <mxGeometry width="30" height="30" as="geometry">
            <mxRectangle width="30" height="30" as="alternateBounds" />
          </mxGeometry>
        </mxCell>
        <mxCell id="-Z61iHKiomQb0ruuadNm-26" value="dni VARCHAR(15) NOT NULL" style="shape=partialRectangle;connectable=0;fillColor=none;top=0;left=0;bottom=0;right=0;align=left;spacingLeft=6;overflow=hidden;whiteSpace=wrap;html=1;" vertex="1" parent="-Z61iHKiomQb0ruuadNm-24">
          <mxGeometry x="30" width="210" height="30" as="geometry">
            <mxRectangle width="210" height="30" as="alternateBounds" />
          </mxGeometry>
        </mxCell>
        <mxCell id="-Z61iHKiomQb0ruuadNm-104" style="edgeStyle=orthogonalEdgeStyle;rounded=0;orthogonalLoop=1;jettySize=auto;html=1;exitX=0;exitY=0.5;exitDx=0;exitDy=0;entryX=0.004;entryY=0.34;entryDx=0;entryDy=0;entryPerimeter=0;" edge="1" parent="-Z61iHKiomQb0ruuadNm-8" source="-Z61iHKiomQb0ruuadNm-9" target="-Z61iHKiomQb0ruuadNm-9">
          <mxGeometry relative="1" as="geometry" />
        </mxCell>
        <mxCell id="-Z61iHKiomQb0ruuadNm-27" value="Email" style="shape=table;startSize=30;container=1;collapsible=1;childLayout=tableLayout;fixedRows=1;rowLines=0;fontStyle=1;align=center;resizeLast=1;html=1;" vertex="1" parent="1">
          <mxGeometry x="-360" y="280" width="230" height="100" as="geometry" />
        </mxCell>
        <mxCell id="-Z61iHKiomQb0ruuadNm-28" value="" style="shape=tableRow;horizontal=0;startSize=0;swimlaneHead=0;swimlaneBody=0;fillColor=none;collapsible=0;dropTarget=0;points=[[0,0.5],[1,0.5]];portConstraint=eastwest;top=0;left=0;right=0;bottom=1;" vertex="1" parent="-Z61iHKiomQb0ruuadNm-27">
          <mxGeometry y="30" width="230" height="40" as="geometry" />
        </mxCell>
        <mxCell id="-Z61iHKiomQb0ruuadNm-29" value="PK,&lt;br&gt;FK" style="shape=partialRectangle;connectable=0;fillColor=none;top=0;left=0;bottom=0;right=0;fontStyle=1;overflow=hidden;whiteSpace=wrap;html=1;" vertex="1" parent="-Z61iHKiomQb0ruuadNm-28">
          <mxGeometry width="30" height="40" as="geometry">
            <mxRectangle width="30" height="40" as="alternateBounds" />
          </mxGeometry>
        </mxCell>
        <mxCell id="-Z61iHKiomQb0ruuadNm-30" value="id_socio SMALLINT NOT NULL" style="shape=partialRectangle;connectable=0;fillColor=none;top=0;left=0;bottom=0;right=0;align=left;spacingLeft=6;fontStyle=5;overflow=hidden;whiteSpace=wrap;html=1;" vertex="1" parent="-Z61iHKiomQb0ruuadNm-28">
          <mxGeometry x="30" width="200" height="40" as="geometry">
            <mxRectangle width="200" height="40" as="alternateBounds" />
          </mxGeometry>
        </mxCell>
        <mxCell id="-Z61iHKiomQb0ruuadNm-31" value="" style="shape=tableRow;horizontal=0;startSize=0;swimlaneHead=0;swimlaneBody=0;fillColor=none;collapsible=0;dropTarget=0;points=[[0,0.5],[1,0.5]];portConstraint=eastwest;top=0;left=0;right=0;bottom=0;" vertex="1" parent="-Z61iHKiomQb0ruuadNm-27">
          <mxGeometry y="70" width="230" height="30" as="geometry" />
        </mxCell>
        <mxCell id="-Z61iHKiomQb0ruuadNm-32" value="" style="shape=partialRectangle;connectable=0;fillColor=none;top=0;left=0;bottom=0;right=0;editable=1;overflow=hidden;whiteSpace=wrap;html=1;" vertex="1" parent="-Z61iHKiomQb0ruuadNm-31">
          <mxGeometry width="30" height="30" as="geometry">
            <mxRectangle width="30" height="30" as="alternateBounds" />
          </mxGeometry>
        </mxCell>
        <mxCell id="-Z61iHKiomQb0ruuadNm-33" value="valor VARCHAR(30) NOT NULL" style="shape=partialRectangle;connectable=0;fillColor=none;top=0;left=0;bottom=0;right=0;align=left;spacingLeft=6;overflow=hidden;whiteSpace=wrap;html=1;" vertex="1" parent="-Z61iHKiomQb0ruuadNm-31">
          <mxGeometry x="30" width="200" height="30" as="geometry">
            <mxRectangle width="200" height="30" as="alternateBounds" />
          </mxGeometry>
        </mxCell>
        <mxCell id="-Z61iHKiomQb0ruuadNm-34" value="Direccion" style="shape=table;startSize=30;container=1;collapsible=1;childLayout=tableLayout;fixedRows=1;rowLines=0;fontStyle=1;align=center;resizeLast=1;html=1;" vertex="1" parent="1">
          <mxGeometry x="-360" y="440" width="220" height="190" as="geometry" />
        </mxCell>
        <mxCell id="-Z61iHKiomQb0ruuadNm-35" value="" style="shape=tableRow;horizontal=0;startSize=0;swimlaneHead=0;swimlaneBody=0;fillColor=none;collapsible=0;dropTarget=0;points=[[0,0.5],[1,0.5]];portConstraint=eastwest;top=0;left=0;right=0;bottom=1;" vertex="1" parent="-Z61iHKiomQb0ruuadNm-34">
          <mxGeometry y="30" width="220" height="40" as="geometry" />
        </mxCell>
        <mxCell id="-Z61iHKiomQb0ruuadNm-36" value="PK, FK" style="shape=partialRectangle;connectable=0;fillColor=none;top=0;left=0;bottom=0;right=0;fontStyle=1;overflow=hidden;whiteSpace=wrap;html=1;" vertex="1" parent="-Z61iHKiomQb0ruuadNm-35">
          <mxGeometry width="30" height="40" as="geometry">
            <mxRectangle width="30" height="40" as="alternateBounds" />
          </mxGeometry>
        </mxCell>
        <mxCell id="-Z61iHKiomQb0ruuadNm-37" value="id_socio SMALLINT NOT NULL" style="shape=partialRectangle;connectable=0;fillColor=none;top=0;left=0;bottom=0;right=0;align=left;spacingLeft=6;fontStyle=5;overflow=hidden;whiteSpace=wrap;html=1;" vertex="1" parent="-Z61iHKiomQb0ruuadNm-35">
          <mxGeometry x="30" width="190" height="40" as="geometry">
            <mxRectangle width="190" height="40" as="alternateBounds" />
          </mxGeometry>
        </mxCell>
        <mxCell id="-Z61iHKiomQb0ruuadNm-38" value="" style="shape=tableRow;horizontal=0;startSize=0;swimlaneHead=0;swimlaneBody=0;fillColor=none;collapsible=0;dropTarget=0;points=[[0,0.5],[1,0.5]];portConstraint=eastwest;top=0;left=0;right=0;bottom=0;" vertex="1" parent="-Z61iHKiomQb0ruuadNm-34">
          <mxGeometry y="70" width="220" height="30" as="geometry" />
        </mxCell>
        <mxCell id="-Z61iHKiomQb0ruuadNm-39" value="" style="shape=partialRectangle;connectable=0;fillColor=none;top=0;left=0;bottom=0;right=0;editable=1;overflow=hidden;whiteSpace=wrap;html=1;" vertex="1" parent="-Z61iHKiomQb0ruuadNm-38">
          <mxGeometry width="30" height="30" as="geometry">
            <mxRectangle width="30" height="30" as="alternateBounds" />
          </mxGeometry>
        </mxCell>
        <mxCell id="-Z61iHKiomQb0ruuadNm-40" value="codigo_postal VARCHAR(5)" style="shape=partialRectangle;connectable=0;fillColor=none;top=0;left=0;bottom=0;right=0;align=left;spacingLeft=6;overflow=hidden;whiteSpace=wrap;html=1;" vertex="1" parent="-Z61iHKiomQb0ruuadNm-38">
          <mxGeometry x="30" width="190" height="30" as="geometry">
            <mxRectangle width="190" height="30" as="alternateBounds" />
          </mxGeometry>
        </mxCell>
        <mxCell id="-Z61iHKiomQb0ruuadNm-41" value="" style="shape=tableRow;horizontal=0;startSize=0;swimlaneHead=0;swimlaneBody=0;fillColor=none;collapsible=0;dropTarget=0;points=[[0,0.5],[1,0.5]];portConstraint=eastwest;top=0;left=0;right=0;bottom=0;" vertex="1" parent="-Z61iHKiomQb0ruuadNm-34">
          <mxGeometry y="100" width="220" height="30" as="geometry" />
        </mxCell>
        <mxCell id="-Z61iHKiomQb0ruuadNm-42" value="" style="shape=partialRectangle;connectable=0;fillColor=none;top=0;left=0;bottom=0;right=0;editable=1;overflow=hidden;whiteSpace=wrap;html=1;" vertex="1" parent="-Z61iHKiomQb0ruuadNm-41">
          <mxGeometry width="30" height="30" as="geometry">
            <mxRectangle width="30" height="30" as="alternateBounds" />
          </mxGeometry>
        </mxCell>
        <mxCell id="-Z61iHKiomQb0ruuadNm-43" value="calle VARCHAR(30)" style="shape=partialRectangle;connectable=0;fillColor=none;top=0;left=0;bottom=0;right=0;align=left;spacingLeft=6;overflow=hidden;whiteSpace=wrap;html=1;" vertex="1" parent="-Z61iHKiomQb0ruuadNm-41">
          <mxGeometry x="30" width="190" height="30" as="geometry">
            <mxRectangle width="190" height="30" as="alternateBounds" />
          </mxGeometry>
        </mxCell>
        <mxCell id="-Z61iHKiomQb0ruuadNm-44" value="" style="shape=tableRow;horizontal=0;startSize=0;swimlaneHead=0;swimlaneBody=0;fillColor=none;collapsible=0;dropTarget=0;points=[[0,0.5],[1,0.5]];portConstraint=eastwest;top=0;left=0;right=0;bottom=0;" vertex="1" parent="-Z61iHKiomQb0ruuadNm-34">
          <mxGeometry y="130" width="220" height="30" as="geometry" />
        </mxCell>
        <mxCell id="-Z61iHKiomQb0ruuadNm-45" value="" style="shape=partialRectangle;connectable=0;fillColor=none;top=0;left=0;bottom=0;right=0;editable=1;overflow=hidden;whiteSpace=wrap;html=1;" vertex="1" parent="-Z61iHKiomQb0ruuadNm-44">
          <mxGeometry width="30" height="30" as="geometry">
            <mxRectangle width="30" height="30" as="alternateBounds" />
          </mxGeometry>
        </mxCell>
        <mxCell id="-Z61iHKiomQb0ruuadNm-46" value="numero VARCHAR(5)" style="shape=partialRectangle;connectable=0;fillColor=none;top=0;left=0;bottom=0;right=0;align=left;spacingLeft=6;overflow=hidden;whiteSpace=wrap;html=1;" vertex="1" parent="-Z61iHKiomQb0ruuadNm-44">
          <mxGeometry x="30" width="190" height="30" as="geometry">
            <mxRectangle width="190" height="30" as="alternateBounds" />
          </mxGeometry>
        </mxCell>
        <mxCell id="-Z61iHKiomQb0ruuadNm-47" value="" style="shape=tableRow;horizontal=0;startSize=0;swimlaneHead=0;swimlaneBody=0;fillColor=none;collapsible=0;dropTarget=0;points=[[0,0.5],[1,0.5]];portConstraint=eastwest;top=0;left=0;right=0;bottom=0;" vertex="1" parent="-Z61iHKiomQb0ruuadNm-34">
          <mxGeometry y="160" width="220" height="30" as="geometry" />
        </mxCell>
        <mxCell id="-Z61iHKiomQb0ruuadNm-48" value="" style="shape=partialRectangle;connectable=0;fillColor=none;top=0;left=0;bottom=0;right=0;editable=1;overflow=hidden;whiteSpace=wrap;html=1;" vertex="1" parent="-Z61iHKiomQb0ruuadNm-47">
          <mxGeometry width="30" height="30" as="geometry">
            <mxRectangle width="30" height="30" as="alternateBounds" />
          </mxGeometry>
        </mxCell>
        <mxCell id="-Z61iHKiomQb0ruuadNm-49" value="piso VARCHAR(8)" style="shape=partialRectangle;connectable=0;fillColor=none;top=0;left=0;bottom=0;right=0;align=left;spacingLeft=6;overflow=hidden;whiteSpace=wrap;html=1;" vertex="1" parent="-Z61iHKiomQb0ruuadNm-47">
          <mxGeometry x="30" width="190" height="30" as="geometry">
            <mxRectangle width="190" height="30" as="alternateBounds" />
          </mxGeometry>
        </mxCell>
        <mxCell id="-Z61iHKiomQb0ruuadNm-50" value="Prestamo" style="shape=table;startSize=30;container=1;collapsible=1;childLayout=tableLayout;fixedRows=1;rowLines=0;fontStyle=1;align=center;resizeLast=1;html=1;" vertex="1" parent="1">
          <mxGeometry x="350" y="70" width="240" height="180" as="geometry" />
        </mxCell>
        <mxCell id="-Z61iHKiomQb0ruuadNm-51" value="" style="shape=tableRow;horizontal=0;startSize=0;swimlaneHead=0;swimlaneBody=0;fillColor=none;collapsible=0;dropTarget=0;points=[[0,0.5],[1,0.5]];portConstraint=eastwest;top=0;left=0;right=0;bottom=1;" vertex="1" parent="-Z61iHKiomQb0ruuadNm-50">
          <mxGeometry y="30" width="240" height="30" as="geometry" />
        </mxCell>
        <mxCell id="-Z61iHKiomQb0ruuadNm-52" value="PK" style="shape=partialRectangle;connectable=0;fillColor=none;top=0;left=0;bottom=0;right=0;fontStyle=1;overflow=hidden;whiteSpace=wrap;html=1;" vertex="1" parent="-Z61iHKiomQb0ruuadNm-51">
          <mxGeometry width="30" height="30" as="geometry">
            <mxRectangle width="30" height="30" as="alternateBounds" />
          </mxGeometry>
        </mxCell>
        <mxCell id="-Z61iHKiomQb0ruuadNm-53" value="id SMALLSERIAL NOT NULL" style="shape=partialRectangle;connectable=0;fillColor=none;top=0;left=0;bottom=0;right=0;align=left;spacingLeft=6;fontStyle=5;overflow=hidden;whiteSpace=wrap;html=1;" vertex="1" parent="-Z61iHKiomQb0ruuadNm-51">
          <mxGeometry x="30" width="210" height="30" as="geometry">
            <mxRectangle width="210" height="30" as="alternateBounds" />
          </mxGeometry>
        </mxCell>
        <mxCell id="-Z61iHKiomQb0ruuadNm-54" value="" style="shape=tableRow;horizontal=0;startSize=0;swimlaneHead=0;swimlaneBody=0;fillColor=none;collapsible=0;dropTarget=0;points=[[0,0.5],[1,0.5]];portConstraint=eastwest;top=0;left=0;right=0;bottom=0;" vertex="1" parent="-Z61iHKiomQb0ruuadNm-50">
          <mxGeometry y="60" width="240" height="30" as="geometry" />
        </mxCell>
        <mxCell id="-Z61iHKiomQb0ruuadNm-55" value="FK" style="shape=partialRectangle;connectable=0;fillColor=none;top=0;left=0;bottom=0;right=0;editable=1;overflow=hidden;whiteSpace=wrap;html=1;" vertex="1" parent="-Z61iHKiomQb0ruuadNm-54">
          <mxGeometry width="30" height="30" as="geometry">
            <mxRectangle width="30" height="30" as="alternateBounds" />
          </mxGeometry>
        </mxCell>
        <mxCell id="-Z61iHKiomQb0ruuadNm-56" value="&lt;meta charset=&quot;utf-8&quot;&gt;&lt;span style=&quot;color: rgb(0, 0, 0); font-family: Helvetica; font-size: 12px; font-style: normal; font-variant-ligatures: normal; font-variant-caps: normal; font-weight: 400; letter-spacing: normal; orphans: 2; text-align: left; text-indent: 0px; text-transform: none; widows: 2; word-spacing: 0px; -webkit-text-stroke-width: 0px; background-color: rgb(251, 251, 251); text-decoration-thickness: initial; text-decoration-style: initial; text-decoration-color: initial; float: none; display: inline !important;&quot;&gt;id_socio SMALLINT NOT NULL&lt;/span&gt;" style="shape=partialRectangle;connectable=0;fillColor=none;top=0;left=0;bottom=0;right=0;align=left;spacingLeft=6;overflow=hidden;whiteSpace=wrap;html=1;" vertex="1" parent="-Z61iHKiomQb0ruuadNm-54">
          <mxGeometry x="30" width="210" height="30" as="geometry">
            <mxRectangle width="210" height="30" as="alternateBounds" />
          </mxGeometry>
        </mxCell>
        <mxCell id="-Z61iHKiomQb0ruuadNm-57" value="" style="shape=tableRow;horizontal=0;startSize=0;swimlaneHead=0;swimlaneBody=0;fillColor=none;collapsible=0;dropTarget=0;points=[[0,0.5],[1,0.5]];portConstraint=eastwest;top=0;left=0;right=0;bottom=0;" vertex="1" parent="-Z61iHKiomQb0ruuadNm-50">
          <mxGeometry y="90" width="240" height="30" as="geometry" />
        </mxCell>
        <mxCell id="-Z61iHKiomQb0ruuadNm-58" value="FK" style="shape=partialRectangle;connectable=0;fillColor=none;top=0;left=0;bottom=0;right=0;editable=1;overflow=hidden;whiteSpace=wrap;html=1;" vertex="1" parent="-Z61iHKiomQb0ruuadNm-57">
          <mxGeometry width="30" height="30" as="geometry">
            <mxRectangle width="30" height="30" as="alternateBounds" />
          </mxGeometry>
        </mxCell>
        <mxCell id="-Z61iHKiomQb0ruuadNm-59" value="id_copia SMALLINT NOT NULL" style="shape=partialRectangle;connectable=0;fillColor=none;top=0;left=0;bottom=0;right=0;align=left;spacingLeft=6;overflow=hidden;whiteSpace=wrap;html=1;" vertex="1" parent="-Z61iHKiomQb0ruuadNm-57">
          <mxGeometry x="30" width="210" height="30" as="geometry">
            <mxRectangle width="210" height="30" as="alternateBounds" />
          </mxGeometry>
        </mxCell>
        <mxCell id="-Z61iHKiomQb0ruuadNm-60" value="" style="shape=tableRow;horizontal=0;startSize=0;swimlaneHead=0;swimlaneBody=0;fillColor=none;collapsible=0;dropTarget=0;points=[[0,0.5],[1,0.5]];portConstraint=eastwest;top=0;left=0;right=0;bottom=0;" vertex="1" parent="-Z61iHKiomQb0ruuadNm-50">
          <mxGeometry y="120" width="240" height="30" as="geometry" />
        </mxCell>
        <mxCell id="-Z61iHKiomQb0ruuadNm-61" value="" style="shape=partialRectangle;connectable=0;fillColor=none;top=0;left=0;bottom=0;right=0;editable=1;overflow=hidden;whiteSpace=wrap;html=1;" vertex="1" parent="-Z61iHKiomQb0ruuadNm-60">
          <mxGeometry width="30" height="30" as="geometry">
            <mxRectangle width="30" height="30" as="alternateBounds" />
          </mxGeometry>
        </mxCell>
        <mxCell id="-Z61iHKiomQb0ruuadNm-62" value="fecha_alquiler DATE NOT NULL" style="shape=partialRectangle;connectable=0;fillColor=none;top=0;left=0;bottom=0;right=0;align=left;spacingLeft=6;overflow=hidden;whiteSpace=wrap;html=1;" vertex="1" parent="-Z61iHKiomQb0ruuadNm-60">
          <mxGeometry x="30" width="210" height="30" as="geometry">
            <mxRectangle width="210" height="30" as="alternateBounds" />
          </mxGeometry>
        </mxCell>
        <mxCell id="-Z61iHKiomQb0ruuadNm-63" value="" style="shape=tableRow;horizontal=0;startSize=0;swimlaneHead=0;swimlaneBody=0;fillColor=none;collapsible=0;dropTarget=0;points=[[0,0.5],[1,0.5]];portConstraint=eastwest;top=0;left=0;right=0;bottom=0;" vertex="1" parent="-Z61iHKiomQb0ruuadNm-50">
          <mxGeometry y="150" width="240" height="30" as="geometry" />
        </mxCell>
        <mxCell id="-Z61iHKiomQb0ruuadNm-64" value="" style="shape=partialRectangle;connectable=0;fillColor=none;top=0;left=0;bottom=0;right=0;editable=1;overflow=hidden;whiteSpace=wrap;html=1;" vertex="1" parent="-Z61iHKiomQb0ruuadNm-63">
          <mxGeometry width="30" height="30" as="geometry">
            <mxRectangle width="30" height="30" as="alternateBounds" />
          </mxGeometry>
        </mxCell>
        <mxCell id="-Z61iHKiomQb0ruuadNm-65" value="fecha_devolucion DATE" style="shape=partialRectangle;connectable=0;fillColor=none;top=0;left=0;bottom=0;right=0;align=left;spacingLeft=6;overflow=hidden;whiteSpace=wrap;html=1;" vertex="1" parent="-Z61iHKiomQb0ruuadNm-63">
          <mxGeometry x="30" width="210" height="30" as="geometry">
            <mxRectangle width="210" height="30" as="alternateBounds" />
          </mxGeometry>
        </mxCell>
        <mxCell id="-Z61iHKiomQb0ruuadNm-66" value="Copia_pelicula" style="shape=table;startSize=30;container=1;collapsible=1;childLayout=tableLayout;fixedRows=1;rowLines=0;fontStyle=1;align=center;resizeLast=1;html=1;" vertex="1" parent="1">
          <mxGeometry x="350" y="310" width="220" height="90" as="geometry" />
        </mxCell>
        <mxCell id="-Z61iHKiomQb0ruuadNm-67" value="" style="shape=tableRow;horizontal=0;startSize=0;swimlaneHead=0;swimlaneBody=0;fillColor=none;collapsible=0;dropTarget=0;points=[[0,0.5],[1,0.5]];portConstraint=eastwest;top=0;left=0;right=0;bottom=1;" vertex="1" parent="-Z61iHKiomQb0ruuadNm-66">
          <mxGeometry y="30" width="220" height="30" as="geometry" />
        </mxCell>
        <mxCell id="-Z61iHKiomQb0ruuadNm-68" value="PK" style="shape=partialRectangle;connectable=0;fillColor=none;top=0;left=0;bottom=0;right=0;fontStyle=1;overflow=hidden;whiteSpace=wrap;html=1;" vertex="1" parent="-Z61iHKiomQb0ruuadNm-67">
          <mxGeometry width="30" height="30" as="geometry">
            <mxRectangle width="30" height="30" as="alternateBounds" />
          </mxGeometry>
        </mxCell>
        <mxCell id="-Z61iHKiomQb0ruuadNm-69" value="id SMALLINT NOT NULL" style="shape=partialRectangle;connectable=0;fillColor=none;top=0;left=0;bottom=0;right=0;align=left;spacingLeft=6;fontStyle=5;overflow=hidden;whiteSpace=wrap;html=1;" vertex="1" parent="-Z61iHKiomQb0ruuadNm-67">
          <mxGeometry x="30" width="190" height="30" as="geometry">
            <mxRectangle width="190" height="30" as="alternateBounds" />
          </mxGeometry>
        </mxCell>
        <mxCell id="-Z61iHKiomQb0ruuadNm-70" value="" style="shape=tableRow;horizontal=0;startSize=0;swimlaneHead=0;swimlaneBody=0;fillColor=none;collapsible=0;dropTarget=0;points=[[0,0.5],[1,0.5]];portConstraint=eastwest;top=0;left=0;right=0;bottom=0;" vertex="1" parent="-Z61iHKiomQb0ruuadNm-66">
          <mxGeometry y="60" width="220" height="30" as="geometry" />
        </mxCell>
        <mxCell id="-Z61iHKiomQb0ruuadNm-71" value="FK" style="shape=partialRectangle;connectable=0;fillColor=none;top=0;left=0;bottom=0;right=0;editable=1;overflow=hidden;whiteSpace=wrap;html=1;" vertex="1" parent="-Z61iHKiomQb0ruuadNm-70">
          <mxGeometry width="30" height="30" as="geometry">
            <mxRectangle width="30" height="30" as="alternateBounds" />
          </mxGeometry>
        </mxCell>
        <mxCell id="-Z61iHKiomQb0ruuadNm-72" value="id_pelicula SMALLINT NOT NULL" style="shape=partialRectangle;connectable=0;fillColor=none;top=0;left=0;bottom=0;right=0;align=left;spacingLeft=6;overflow=hidden;whiteSpace=wrap;html=1;" vertex="1" parent="-Z61iHKiomQb0ruuadNm-70">
          <mxGeometry x="30" width="190" height="30" as="geometry">
            <mxRectangle width="190" height="30" as="alternateBounds" />
          </mxGeometry>
        </mxCell>
        <mxCell id="-Z61iHKiomQb0ruuadNm-73" value="Pelicula" style="shape=table;startSize=25;container=1;collapsible=1;childLayout=tableLayout;fixedRows=1;rowLines=0;fontStyle=1;align=center;resizeLast=1;html=1;" vertex="1" parent="1">
          <mxGeometry x="710" y="355" width="220" height="180" as="geometry" />
        </mxCell>
        <mxCell id="-Z61iHKiomQb0ruuadNm-74" value="" style="shape=tableRow;horizontal=0;startSize=0;swimlaneHead=0;swimlaneBody=0;fillColor=none;collapsible=0;dropTarget=0;points=[[0,0.5],[1,0.5]];portConstraint=eastwest;top=0;left=0;right=0;bottom=1;" vertex="1" parent="-Z61iHKiomQb0ruuadNm-73">
          <mxGeometry y="25" width="220" height="30" as="geometry" />
        </mxCell>
        <mxCell id="-Z61iHKiomQb0ruuadNm-75" value="PK" style="shape=partialRectangle;connectable=0;fillColor=none;top=0;left=0;bottom=0;right=0;fontStyle=1;overflow=hidden;whiteSpace=wrap;html=1;" vertex="1" parent="-Z61iHKiomQb0ruuadNm-74">
          <mxGeometry width="30" height="30" as="geometry">
            <mxRectangle width="30" height="30" as="alternateBounds" />
          </mxGeometry>
        </mxCell>
        <mxCell id="-Z61iHKiomQb0ruuadNm-76" value="id SMALLSERIAL NOT NULL" style="shape=partialRectangle;connectable=0;fillColor=none;top=0;left=0;bottom=0;right=0;align=left;spacingLeft=6;fontStyle=5;overflow=hidden;whiteSpace=wrap;html=1;" vertex="1" parent="-Z61iHKiomQb0ruuadNm-74">
          <mxGeometry x="30" width="190" height="30" as="geometry">
            <mxRectangle width="190" height="30" as="alternateBounds" />
          </mxGeometry>
        </mxCell>
        <mxCell id="-Z61iHKiomQb0ruuadNm-80" value="" style="shape=tableRow;horizontal=0;startSize=0;swimlaneHead=0;swimlaneBody=0;fillColor=none;collapsible=0;dropTarget=0;points=[[0,0.5],[1,0.5]];portConstraint=eastwest;top=0;left=0;right=0;bottom=0;" vertex="1" parent="-Z61iHKiomQb0ruuadNm-73">
          <mxGeometry y="55" width="220" height="30" as="geometry" />
        </mxCell>
        <mxCell id="-Z61iHKiomQb0ruuadNm-81" value="FK" style="shape=partialRectangle;connectable=0;fillColor=none;top=0;left=0;bottom=0;right=0;editable=1;overflow=hidden;whiteSpace=wrap;html=1;" vertex="1" parent="-Z61iHKiomQb0ruuadNm-80">
          <mxGeometry width="30" height="30" as="geometry">
            <mxRectangle width="30" height="30" as="alternateBounds" />
          </mxGeometry>
        </mxCell>
        <mxCell id="-Z61iHKiomQb0ruuadNm-82" value="id_genero SMALLINT NOT NULL" style="shape=partialRectangle;connectable=0;fillColor=none;top=0;left=0;bottom=0;right=0;align=left;spacingLeft=6;overflow=hidden;whiteSpace=wrap;html=1;" vertex="1" parent="-Z61iHKiomQb0ruuadNm-80">
          <mxGeometry x="30" width="190" height="30" as="geometry">
            <mxRectangle width="190" height="30" as="alternateBounds" />
          </mxGeometry>
        </mxCell>
        <mxCell id="-Z61iHKiomQb0ruuadNm-83" value="" style="shape=tableRow;horizontal=0;startSize=0;swimlaneHead=0;swimlaneBody=0;fillColor=none;collapsible=0;dropTarget=0;points=[[0,0.5],[1,0.5]];portConstraint=eastwest;top=0;left=0;right=0;bottom=0;" vertex="1" parent="-Z61iHKiomQb0ruuadNm-73">
          <mxGeometry y="85" width="220" height="30" as="geometry" />
        </mxCell>
        <mxCell id="-Z61iHKiomQb0ruuadNm-84" value="FK" style="shape=partialRectangle;connectable=0;fillColor=none;top=0;left=0;bottom=0;right=0;editable=1;overflow=hidden;whiteSpace=wrap;html=1;" vertex="1" parent="-Z61iHKiomQb0ruuadNm-83">
          <mxGeometry width="30" height="30" as="geometry">
            <mxRectangle width="30" height="30" as="alternateBounds" />
          </mxGeometry>
        </mxCell>
        <mxCell id="-Z61iHKiomQb0ruuadNm-85" value="id_director SMALLINT NOT NULL" style="shape=partialRectangle;connectable=0;fillColor=none;top=0;left=0;bottom=0;right=0;align=left;spacingLeft=6;overflow=hidden;whiteSpace=wrap;html=1;" vertex="1" parent="-Z61iHKiomQb0ruuadNm-83">
          <mxGeometry x="30" width="190" height="30" as="geometry">
            <mxRectangle width="190" height="30" as="alternateBounds" />
          </mxGeometry>
        </mxCell>
        <mxCell id="-Z61iHKiomQb0ruuadNm-77" value="" style="shape=tableRow;horizontal=0;startSize=0;swimlaneHead=0;swimlaneBody=0;fillColor=none;collapsible=0;dropTarget=0;points=[[0,0.5],[1,0.5]];portConstraint=eastwest;top=0;left=0;right=0;bottom=0;" vertex="1" parent="-Z61iHKiomQb0ruuadNm-73">
          <mxGeometry y="115" width="220" height="30" as="geometry" />
        </mxCell>
        <mxCell id="-Z61iHKiomQb0ruuadNm-78" value="" style="shape=partialRectangle;connectable=0;fillColor=none;top=0;left=0;bottom=0;right=0;editable=1;overflow=hidden;whiteSpace=wrap;html=1;" vertex="1" parent="-Z61iHKiomQb0ruuadNm-77">
          <mxGeometry width="30" height="30" as="geometry">
            <mxRectangle width="30" height="30" as="alternateBounds" />
          </mxGeometry>
        </mxCell>
        <mxCell id="-Z61iHKiomQb0ruuadNm-79" value="titulo VARCHAR(60) NOT NULL" style="shape=partialRectangle;connectable=0;fillColor=none;top=0;left=0;bottom=0;right=0;align=left;spacingLeft=6;overflow=hidden;whiteSpace=wrap;html=1;" vertex="1" parent="-Z61iHKiomQb0ruuadNm-77">
          <mxGeometry x="30" width="190" height="30" as="geometry">
            <mxRectangle width="190" height="30" as="alternateBounds" />
          </mxGeometry>
        </mxCell>
        <mxCell id="-Z61iHKiomQb0ruuadNm-86" value="" style="shape=tableRow;horizontal=0;startSize=0;swimlaneHead=0;swimlaneBody=0;fillColor=none;collapsible=0;dropTarget=0;points=[[0,0.5],[1,0.5]];portConstraint=eastwest;top=0;left=0;right=0;bottom=0;" vertex="1" parent="-Z61iHKiomQb0ruuadNm-73">
          <mxGeometry y="145" width="220" height="30" as="geometry" />
        </mxCell>
        <mxCell id="-Z61iHKiomQb0ruuadNm-87" value="" style="shape=partialRectangle;connectable=0;fillColor=none;top=0;left=0;bottom=0;right=0;editable=1;overflow=hidden;whiteSpace=wrap;html=1;" vertex="1" parent="-Z61iHKiomQb0ruuadNm-86">
          <mxGeometry width="30" height="30" as="geometry">
            <mxRectangle width="30" height="30" as="alternateBounds" />
          </mxGeometry>
        </mxCell>
        <mxCell id="-Z61iHKiomQb0ruuadNm-88" value="sinopsis TEXT NOT NULL" style="shape=partialRectangle;connectable=0;fillColor=none;top=0;left=0;bottom=0;right=0;align=left;spacingLeft=6;overflow=hidden;whiteSpace=wrap;html=1;" vertex="1" parent="-Z61iHKiomQb0ruuadNm-86">
          <mxGeometry x="30" width="190" height="30" as="geometry">
            <mxRectangle width="190" height="30" as="alternateBounds" />
          </mxGeometry>
        </mxCell>
        <mxCell id="-Z61iHKiomQb0ruuadNm-89" value="Genero" style="shape=table;startSize=30;container=1;collapsible=1;childLayout=tableLayout;fixedRows=1;rowLines=0;fontStyle=1;align=center;resizeLast=1;html=1;" vertex="1" parent="1">
          <mxGeometry x="720" y="750" width="220" height="90" as="geometry" />
        </mxCell>
        <mxCell id="-Z61iHKiomQb0ruuadNm-90" value="" style="shape=tableRow;horizontal=0;startSize=0;swimlaneHead=0;swimlaneBody=0;fillColor=none;collapsible=0;dropTarget=0;points=[[0,0.5],[1,0.5]];portConstraint=eastwest;top=0;left=0;right=0;bottom=1;" vertex="1" parent="-Z61iHKiomQb0ruuadNm-89">
          <mxGeometry y="30" width="220" height="30" as="geometry" />
        </mxCell>
        <mxCell id="-Z61iHKiomQb0ruuadNm-91" value="PK" style="shape=partialRectangle;connectable=0;fillColor=none;top=0;left=0;bottom=0;right=0;fontStyle=1;overflow=hidden;whiteSpace=wrap;html=1;" vertex="1" parent="-Z61iHKiomQb0ruuadNm-90">
          <mxGeometry width="30" height="30" as="geometry">
            <mxRectangle width="30" height="30" as="alternateBounds" />
          </mxGeometry>
        </mxCell>
        <mxCell id="-Z61iHKiomQb0ruuadNm-92" value="id SMALLSERIAL NOT NULL" style="shape=partialRectangle;connectable=0;fillColor=none;top=0;left=0;bottom=0;right=0;align=left;spacingLeft=6;fontStyle=5;overflow=hidden;whiteSpace=wrap;html=1;" vertex="1" parent="-Z61iHKiomQb0ruuadNm-90">
          <mxGeometry x="30" width="190" height="30" as="geometry">
            <mxRectangle width="190" height="30" as="alternateBounds" />
          </mxGeometry>
        </mxCell>
        <mxCell id="-Z61iHKiomQb0ruuadNm-93" value="" style="shape=tableRow;horizontal=0;startSize=0;swimlaneHead=0;swimlaneBody=0;fillColor=none;collapsible=0;dropTarget=0;points=[[0,0.5],[1,0.5]];portConstraint=eastwest;top=0;left=0;right=0;bottom=0;" vertex="1" parent="-Z61iHKiomQb0ruuadNm-89">
          <mxGeometry y="60" width="220" height="30" as="geometry" />
        </mxCell>
        <mxCell id="-Z61iHKiomQb0ruuadNm-94" value="" style="shape=partialRectangle;connectable=0;fillColor=none;top=0;left=0;bottom=0;right=0;editable=1;overflow=hidden;whiteSpace=wrap;html=1;" vertex="1" parent="-Z61iHKiomQb0ruuadNm-93">
          <mxGeometry width="30" height="30" as="geometry">
            <mxRectangle width="30" height="30" as="alternateBounds" />
          </mxGeometry>
        </mxCell>
        <mxCell id="-Z61iHKiomQb0ruuadNm-95" value="valor VARCHAR(20) NOT NULL" style="shape=partialRectangle;connectable=0;fillColor=none;top=0;left=0;bottom=0;right=0;align=left;spacingLeft=6;overflow=hidden;whiteSpace=wrap;html=1;" vertex="1" parent="-Z61iHKiomQb0ruuadNm-93">
          <mxGeometry x="30" width="190" height="30" as="geometry">
            <mxRectangle width="190" height="30" as="alternateBounds" />
          </mxGeometry>
        </mxCell>
        <mxCell id="-Z61iHKiomQb0ruuadNm-96" value="Director" style="shape=table;startSize=30;container=1;collapsible=1;childLayout=tableLayout;fixedRows=1;rowLines=0;fontStyle=1;align=center;resizeLast=1;html=1;" vertex="1" parent="1">
          <mxGeometry x="710" y="610" width="220" height="90" as="geometry" />
        </mxCell>
        <mxCell id="-Z61iHKiomQb0ruuadNm-97" value="" style="shape=tableRow;horizontal=0;startSize=0;swimlaneHead=0;swimlaneBody=0;fillColor=none;collapsible=0;dropTarget=0;points=[[0,0.5],[1,0.5]];portConstraint=eastwest;top=0;left=0;right=0;bottom=1;" vertex="1" parent="-Z61iHKiomQb0ruuadNm-96">
          <mxGeometry y="30" width="220" height="30" as="geometry" />
        </mxCell>
        <mxCell id="-Z61iHKiomQb0ruuadNm-98" value="PK" style="shape=partialRectangle;connectable=0;fillColor=none;top=0;left=0;bottom=0;right=0;fontStyle=1;overflow=hidden;whiteSpace=wrap;html=1;" vertex="1" parent="-Z61iHKiomQb0ruuadNm-97">
          <mxGeometry width="30" height="30" as="geometry">
            <mxRectangle width="30" height="30" as="alternateBounds" />
          </mxGeometry>
        </mxCell>
        <mxCell id="-Z61iHKiomQb0ruuadNm-99" value="id SMALLSERIAL NOT NULL" style="shape=partialRectangle;connectable=0;fillColor=none;top=0;left=0;bottom=0;right=0;align=left;spacingLeft=6;fontStyle=5;overflow=hidden;whiteSpace=wrap;html=1;" vertex="1" parent="-Z61iHKiomQb0ruuadNm-97">
          <mxGeometry x="30" width="190" height="30" as="geometry">
            <mxRectangle width="190" height="30" as="alternateBounds" />
          </mxGeometry>
        </mxCell>
        <mxCell id="-Z61iHKiomQb0ruuadNm-100" value="" style="shape=tableRow;horizontal=0;startSize=0;swimlaneHead=0;swimlaneBody=0;fillColor=none;collapsible=0;dropTarget=0;points=[[0,0.5],[1,0.5]];portConstraint=eastwest;top=0;left=0;right=0;bottom=0;" vertex="1" parent="-Z61iHKiomQb0ruuadNm-96">
          <mxGeometry y="60" width="220" height="30" as="geometry" />
        </mxCell>
        <mxCell id="-Z61iHKiomQb0ruuadNm-101" value="" style="shape=partialRectangle;connectable=0;fillColor=none;top=0;left=0;bottom=0;right=0;editable=1;overflow=hidden;whiteSpace=wrap;html=1;" vertex="1" parent="-Z61iHKiomQb0ruuadNm-100">
          <mxGeometry width="30" height="30" as="geometry">
            <mxRectangle width="30" height="30" as="alternateBounds" />
          </mxGeometry>
        </mxCell>
        <mxCell id="-Z61iHKiomQb0ruuadNm-102" value="valor VARCHAR(40) NOT NULL" style="shape=partialRectangle;connectable=0;fillColor=none;top=0;left=0;bottom=0;right=0;align=left;spacingLeft=6;overflow=hidden;whiteSpace=wrap;html=1;" vertex="1" parent="-Z61iHKiomQb0ruuadNm-100">
          <mxGeometry x="30" width="190" height="30" as="geometry">
            <mxRectangle width="190" height="30" as="alternateBounds" />
          </mxGeometry>
        </mxCell>
        <mxCell id="-Z61iHKiomQb0ruuadNm-103" style="edgeStyle=orthogonalEdgeStyle;rounded=0;orthogonalLoop=1;jettySize=auto;html=1;startArrow=ERone;startFill=0;endArrow=ERone;endFill=0;" edge="1" parent="1" source="-Z61iHKiomQb0ruuadNm-9" target="-Z61iHKiomQb0ruuadNm-2">
          <mxGeometry relative="1" as="geometry">
            <Array as="points">
              <mxPoint x="-90" y="80" />
              <mxPoint x="-90" y="170" />
            </Array>
          </mxGeometry>
        </mxCell>
        <mxCell id="-Z61iHKiomQb0ruuadNm-105" style="edgeStyle=orthogonalEdgeStyle;rounded=0;orthogonalLoop=1;jettySize=auto;html=1;startArrow=ERone;startFill=0;endArrow=ERone;endFill=0;" edge="1" parent="1" source="-Z61iHKiomQb0ruuadNm-9" target="-Z61iHKiomQb0ruuadNm-28">
          <mxGeometry relative="1" as="geometry">
            <mxPoint y="100" as="sourcePoint" />
            <Array as="points">
              <mxPoint x="-60" y="100" />
              <mxPoint x="-60" y="330" />
            </Array>
          </mxGeometry>
        </mxCell>
        <mxCell id="-Z61iHKiomQb0ruuadNm-106" style="edgeStyle=orthogonalEdgeStyle;rounded=0;orthogonalLoop=1;jettySize=auto;html=1;startArrow=ERone;startFill=0;endArrow=ERone;endFill=0;" edge="1" parent="1" source="-Z61iHKiomQb0ruuadNm-9" target="-Z61iHKiomQb0ruuadNm-35">
          <mxGeometry relative="1" as="geometry">
            <Array as="points">
              <mxPoint x="-40" y="120" />
              <mxPoint x="-40" y="490" />
            </Array>
          </mxGeometry>
        </mxCell>
        <mxCell id="-Z61iHKiomQb0ruuadNm-107" style="edgeStyle=orthogonalEdgeStyle;rounded=0;orthogonalLoop=1;jettySize=auto;html=1;startArrow=ERone;startFill=0;endArrow=ERmany;endFill=0;" edge="1" parent="1" source="-Z61iHKiomQb0ruuadNm-9" target="-Z61iHKiomQb0ruuadNm-54">
          <mxGeometry relative="1" as="geometry">
            <Array as="points">
              <mxPoint x="310" y="110" />
              <mxPoint x="310" y="145" />
            </Array>
          </mxGeometry>
        </mxCell>
        <mxCell id="-Z61iHKiomQb0ruuadNm-108" style="edgeStyle=orthogonalEdgeStyle;rounded=0;orthogonalLoop=1;jettySize=auto;html=1;startArrow=ERmany;startFill=0;endArrow=ERone;endFill=0;" edge="1" parent="1" source="-Z61iHKiomQb0ruuadNm-57" target="-Z61iHKiomQb0ruuadNm-67">
          <mxGeometry relative="1" as="geometry">
            <mxPoint x="340" y="460" as="targetPoint" />
            <Array as="points">
              <mxPoint x="320" y="175" />
              <mxPoint x="320" y="360" />
              <mxPoint x="330" y="360" />
              <mxPoint x="330" y="355" />
            </Array>
          </mxGeometry>
        </mxCell>
        <mxCell id="-Z61iHKiomQb0ruuadNm-109" style="edgeStyle=orthogonalEdgeStyle;rounded=0;orthogonalLoop=1;jettySize=auto;html=1;startArrow=ERone;startFill=0;endArrow=ERmany;endFill=0;" edge="1" parent="1" source="-Z61iHKiomQb0ruuadNm-74" target="-Z61iHKiomQb0ruuadNm-70">
          <mxGeometry relative="1" as="geometry" />
        </mxCell>
        <mxCell id="-Z61iHKiomQb0ruuadNm-110" style="edgeStyle=orthogonalEdgeStyle;rounded=0;orthogonalLoop=1;jettySize=auto;html=1;startArrow=ERone;startFill=0;endArrow=ERmany;endFill=0;" edge="1" parent="1" source="-Z61iHKiomQb0ruuadNm-90" target="-Z61iHKiomQb0ruuadNm-80">
          <mxGeometry relative="1" as="geometry">
            <Array as="points">
              <mxPoint x="650" y="795" />
              <mxPoint x="650" y="425" />
            </Array>
          </mxGeometry>
        </mxCell>
        <mxCell id="-Z61iHKiomQb0ruuadNm-111" style="edgeStyle=orthogonalEdgeStyle;rounded=0;orthogonalLoop=1;jettySize=auto;html=1;startArrow=ERone;startFill=0;endArrow=ERmany;endFill=0;" edge="1" parent="1" source="-Z61iHKiomQb0ruuadNm-97" target="-Z61iHKiomQb0ruuadNm-83">
          <mxGeometry relative="1" as="geometry">
            <Array as="points">
              <mxPoint x="690" y="655" />
              <mxPoint x="690" y="455" />
            </Array>
          </mxGeometry>
        </mxCell>
      </root>
    </mxGraphModel>
  </diagram>
</mxfile>
